<svg width="124" height="21" viewBox="0 0 124 21" fill="none" xmlns="http://www.w3.org/2000/svg">
<path d="M11.7459 8H10.3368C10.2534 7.5947 10.1076 7.23864 9.89928 6.93182C9.69474 6.625 9.44474 6.36742 9.14928 6.15909C8.85761 5.94697 8.53375 5.78788 8.17769 5.68182C7.82163 5.57576 7.45042 5.52273 7.06405 5.52273C6.35951 5.52273 5.72125 5.70076 5.14928 6.05682C4.5811 6.41288 4.12845 6.9375 3.79133 7.63068C3.45799 8.32386 3.29133 9.17424 3.29133 10.1818C3.29133 11.1894 3.45799 12.0398 3.79133 12.733C4.12845 13.4261 4.5811 13.9508 5.14928 14.3068C5.72125 14.6629 6.35951 14.8409 7.06405 14.8409C7.45042 14.8409 7.82163 14.7879 8.17769 14.6818C8.53375 14.5758 8.85761 14.4186 9.14928 14.2102C9.44474 13.9981 9.69474 13.7386 9.89928 13.4318C10.1076 13.1212 10.2534 12.7652 10.3368 12.3636H11.7459C11.6398 12.9583 11.4466 13.4905 11.1663 13.9602C10.886 14.4299 10.5375 14.8295 10.1209 15.1591C9.70421 15.4848 9.2364 15.733 8.71746 15.9034C8.20231 16.0739 7.65118 16.1591 7.06405 16.1591C6.07163 16.1591 5.18905 15.9167 4.41633 15.4318C3.6436 14.947 3.03564 14.2576 2.59246 13.3636C2.14928 12.4697 1.92769 11.4091 1.92769 10.1818C1.92769 8.95455 2.14928 7.89394 2.59246 7C3.03564 6.10606 3.6436 5.41667 4.41633 4.93182C5.18905 4.44697 6.07163 4.20455 7.06405 4.20455C7.65118 4.20455 8.20231 4.28977 8.71746 4.46023C9.2364 4.63068 9.70421 4.88068 10.1209 5.21023C10.5375 5.53598 10.886 5.93371 11.1663 6.40341C11.4466 6.86932 11.6398 7.40151 11.7459 8ZM14.5001 16H13.0229L17.2956 4.36364H18.7501L23.0229 16H21.5456L18.0683 6.20455H17.9774L14.5001 16ZM15.0456 11.4545H21.0001V12.7045H15.0456V11.4545ZM24.8354 16V4.36364H28.7672C29.6763 4.36364 30.4225 4.51894 31.0058 4.82955C31.5891 5.13636 32.021 5.55871 32.3013 6.09659C32.5816 6.63447 32.7217 7.24621 32.7217 7.93182C32.7217 8.61742 32.5816 9.22538 32.3013 9.75568C32.021 10.286 31.591 10.7027 31.0115 11.0057C30.432 11.3049 29.6914 11.4545 28.7899 11.4545H25.6081V10.1818H28.7445C29.3657 10.1818 29.8657 10.0909 30.2445 9.90909C30.627 9.72727 30.9035 9.4697 31.074 9.13636C31.2482 8.79924 31.3354 8.39773 31.3354 7.93182C31.3354 7.46591 31.2482 7.05871 31.074 6.71023C30.8998 6.36174 30.6213 6.0928 30.2388 5.90341C29.8562 5.71023 29.3505 5.61364 28.7217 5.61364H26.2445V16H24.8354ZM30.3126 10.7727L33.1763 16H31.5399L28.7217 10.7727H30.3126ZM34.4334 5.61364V4.36364H43.1606V5.61364H39.5016V16H38.0925V5.61364H34.4334ZM44.4533 16H42.976L47.2487 4.36364H48.7033L52.976 16H51.4987L48.0214 6.20455H47.9305L44.4533 16ZM44.9987 11.4545H50.9533V12.7045H44.9987V11.4545ZM64.0598 10.1818C64.0598 11.4091 63.8382 12.4697 63.395 13.3636C62.9518 14.2576 62.3439 14.947 61.5712 15.4318C60.7984 15.9167 59.9159 16.1591 58.9234 16.1591C57.931 16.1591 57.0484 15.9167 56.2757 15.4318C55.503 14.947 54.895 14.2576 54.4518 13.3636C54.0087 12.4697 53.7871 11.4091 53.7871 10.1818C53.7871 8.95455 54.0087 7.89394 54.4518 7C54.895 6.10606 55.503 5.41667 56.2757 4.93182C57.0484 4.44697 57.931 4.20455 58.9234 4.20455C59.9159 4.20455 60.7984 4.44697 61.5712 4.93182C62.3439 5.41667 62.9518 6.10606 63.395 7C63.8382 7.89394 64.0598 8.95455 64.0598 10.1818ZM62.6962 10.1818C62.6962 9.17424 62.5276 8.32386 62.1905 7.63068C61.8571 6.9375 61.4045 6.41288 60.8325 6.05682C60.2643 5.70076 59.628 5.52273 58.9234 5.52273C58.2189 5.52273 57.5806 5.70076 57.0087 6.05682C56.4405 6.41288 55.9878 6.9375 55.6507 7.63068C55.3174 8.32386 55.1507 9.17424 55.1507 10.1818C55.1507 11.1894 55.3174 12.0398 55.6507 12.733C55.9878 13.4261 56.4405 13.9508 57.0087 14.3068C57.5806 14.6629 58.2189 14.8409 58.9234 14.8409C59.628 14.8409 60.2643 14.6629 60.8325 14.3068C61.4045 13.9508 61.8571 13.4261 62.1905 12.733C62.5276 12.0398 62.6962 11.1894 62.6962 10.1818Z" fill="#959595"/>
<path d="M66.9064 16H65.4291L69.7018 4.36364H71.1564L75.4291 16H73.9518L70.4746 6.20455H70.3837L66.9064 16ZM67.4518 11.4545H73.4064V12.7045H67.4518V11.4545ZM77.0598 19.2727V7.27273H78.3552V8.65909H78.5143C78.6128 8.50758 78.7492 8.31439 78.9234 8.07955C79.1015 7.84091 79.3552 7.62879 79.6848 7.44318C80.0181 7.25379 80.4689 7.15909 81.0371 7.15909C81.7719 7.15909 82.4196 7.3428 82.9802 7.71023C83.5409 8.07765 83.9784 8.59848 84.2927 9.27273C84.6071 9.94697 84.7643 10.7424 84.7643 11.6591C84.7643 12.5833 84.6071 13.3845 84.2927 14.0625C83.9784 14.7367 83.5427 15.2595 82.9859 15.6307C82.4291 15.9981 81.7871 16.1818 81.0598 16.1818C80.4992 16.1818 80.0503 16.089 79.7132 15.9034C79.3761 15.714 79.1166 15.5 78.9348 15.2614C78.753 15.0189 78.6128 14.8182 78.5143 14.6591H78.4007V19.2727H77.0598ZM78.378 11.6364C78.378 12.2955 78.4746 12.8769 78.6677 13.3807C78.8609 13.8807 79.1431 14.2727 79.5143 14.5568C79.8855 14.8371 80.3401 14.9773 80.878 14.9773C81.4386 14.9773 81.9064 14.8295 82.2814 14.5341C82.6602 14.2348 82.9443 13.8333 83.1337 13.3295C83.3268 12.822 83.4234 12.2576 83.4234 11.6364C83.4234 11.0227 83.3287 10.4697 83.1393 9.97727C82.9537 9.48106 82.6715 9.08902 82.2927 8.80114C81.9177 8.50947 81.4462 8.36364 80.878 8.36364C80.3325 8.36364 79.8742 8.50189 79.503 8.77841C79.1318 9.05114 78.8515 9.43371 78.6621 9.92614C78.4727 10.4148 78.378 10.9848 78.378 11.6364ZM86.8098 19.2727V7.27273H88.1052V8.65909H88.2643C88.3628 8.50758 88.4992 8.31439 88.6734 8.07955C88.8515 7.84091 89.1052 7.62879 89.4348 7.44318C89.7681 7.25379 90.2189 7.15909 90.7871 7.15909C91.5219 7.15909 92.1696 7.3428 92.7302 7.71023C93.2909 8.07765 93.7284 8.59848 94.0427 9.27273C94.3571 9.94697 94.5143 10.7424 94.5143 11.6591C94.5143 12.5833 94.3571 13.3845 94.0427 14.0625C93.7284 14.7367 93.2927 15.2595 92.7359 15.6307C92.1791 15.9981 91.5371 16.1818 90.8098 16.1818C90.2492 16.1818 89.8003 16.089 89.4632 15.9034C89.1261 15.714 88.8666 15.5 88.6848 15.2614C88.503 15.0189 88.3628 14.8182 88.2643 14.6591H88.1507V19.2727H86.8098ZM88.128 11.6364C88.128 12.2955 88.2246 12.8769 88.4177 13.3807C88.6109 13.8807 88.8931 14.2727 89.2643 14.5568C89.6355 14.8371 90.0901 14.9773 90.628 14.9773C91.1886 14.9773 91.6564 14.8295 92.0314 14.5341C92.4102 14.2348 92.6943 13.8333 92.8837 13.3295C93.0768 12.822 93.1734 12.2576 93.1734 11.6364C93.1734 11.0227 93.0787 10.4697 92.8893 9.97727C92.7037 9.48106 92.4215 9.08902 92.0427 8.80114C91.6677 8.50947 91.1962 8.36364 90.628 8.36364C90.0825 8.36364 89.6242 8.50189 89.253 8.77841C88.8818 9.05114 88.6015 9.43371 88.4121 9.92614C88.2227 10.4148 88.128 10.9848 88.128 11.6364Z" fill="white"/>
<path fill-rule="evenodd" clip-rule="evenodd" d="M108.122 13.8617L108.119 13.8662L108.116 13.8707C107.938 14.1227 107.539 14.1968 107.227 13.9765C106.978 13.8002 106.903 13.4074 107.115 13.097C107.432 12.6927 107.663 12.2201 107.814 11.758C107.971 11.277 108.045 10.7305 108.042 10.1944C108.039 9.65837 107.96 9.11261 107.797 8.63332C107.641 8.17294 107.406 7.7028 107.084 7.30194C106.868 6.99376 106.939 6.60016 107.187 6.42122C107.496 6.19768 107.896 6.26749 108.077 6.5176L108.08 6.52209L108.083 6.5265C108.483 7.05404 108.811 7.64017 109.007 8.21523C109.214 8.8917 109.345 9.54607 109.349 10.1875C109.352 10.8624 109.288 11.5013 109.04 12.1302C108.77 12.8151 108.509 13.34 108.122 13.8617ZM111.015 15.1145L111.023 15.1034L111.03 15.0919C111.917 13.6713 112.428 11.957 112.418 10.1711C112.409 8.38569 111.88 6.67737 110.978 5.26645C110.783 4.95669 110.871 4.59044 111.2 4.3526C111.421 4.19287 111.836 4.24943 112.082 4.57952C113.1 6.19415 113.715 8.14599 113.725 10.1642C113.737 12.2512 113.143 14.1397 112.142 15.7661C111.91 16.085 111.556 16.1743 111.25 15.9936C110.918 15.7507 110.858 15.337 111.015 15.1145ZM116.205 2.45723L116.214 2.47448L116.224 2.49097C117.603 4.73918 118.37 7.33242 118.385 10.1394C118.4 12.945 117.662 15.5451 116.308 17.8072C116.1 18.1409 115.75 18.235 115.395 18.0697C115.071 17.859 114.984 17.5098 115.153 17.1571C116.305 15.1124 117.021 12.703 117.007 10.1467C116.993 7.60175 116.328 5.19617 115.076 3.15136C114.907 2.80221 114.991 2.45448 115.31 2.24136C115.696 2.05724 116.071 2.1922 116.205 2.45723ZM120.289 0.317655L120.295 0.32944L120.301 0.340875C121.972 3.2294 122.954 6.53184 122.973 10.1149C122.992 13.6943 122.048 17.0039 120.41 19.9079C120.203 20.2378 119.854 20.3302 119.5 20.1656C119.178 19.9556 119.091 19.6079 119.257 19.2564C120.834 16.5648 121.684 13.4463 121.666 10.1219C121.648 6.78886 120.691 3.6825 119.162 1.0174C118.971 0.628348 119.106 0.247314 119.373 0.111823C119.765 -0.0870519 120.152 0.0479481 120.289 0.317655Z" fill="white"/>
</svg>
